<mxfile host="drawio-plugin" modified="2023-09-27T13:27:24.972Z" agent="5.0 (Macintosh; Intel Mac OS X 10_15_7) AppleWebKit/537.36 (KHTML, like Gecko) Chrome/111.0.0.0 Safari/537.36" etag="AB5-eqNXRkz26lJIDLrn" version="20.5.3" type="embed"><diagram name="Page-1" id="9ufwhcnTkFxLBRxxdXCE"><mxGraphModel dx="3193" dy="2750" grid="1" gridSize="10" guides="1" tooltips="1" connect="1" arrows="1" fold="1" page="1" pageScale="1" pageWidth="827" pageHeight="1169" math="0" shadow="0"><root><mxCell id="0"/><mxCell id="1" parent="0"/><mxCell id="x8H_AzcutYia_HZwhF_x-13" value="Connector repo" style="rounded=0;whiteSpace=wrap;html=1;fillColor=#dae8fc;strokeColor=#6c8ebf;align=left;verticalAlign=top;" parent="1" vertex="1"><mxGeometry x="-40" y="-200" width="1930" height="1290" as="geometry"/></mxCell><mxCell id="9" value="&lt;font color=&quot;#000000&quot;&gt;&lt;span style=&quot;text-align: center;&quot;&gt;DidResourceManager&lt;/span&gt;&lt;br style=&quot;text-align: center;&quot;&gt;&lt;/font&gt;&lt;ul style=&quot;text-align: center;&quot;&gt;&lt;li style=&quot;text-align: left;&quot;&gt;&lt;font color=&quot;#000000&quot;&gt;updates a DID Resource in DB&lt;/font&gt;&lt;/li&gt;&lt;li style=&quot;text-align: left;&quot;&gt;&lt;font color=&quot;#000000&quot;&gt;updates/overwrites DID Document&lt;/font&gt;&lt;/li&gt;&lt;/ul&gt;" style="rounded=0;whiteSpace=wrap;html=1;fillColor=#d0cee2;strokeColor=#56517e;align=left;verticalAlign=top;fontColor=#1A1A1A;" parent="1" vertex="1"><mxGeometry x="390" y="590" width="507" height="420" as="geometry"/></mxCell><mxCell id="f_QN_MbOgWcu5FuEZ_xT-16" value="PresentationCreationService&lt;br&gt;&lt;ul&gt;&lt;li&gt;receives a presentation request (containing a PresentationDefinition)&lt;/li&gt;&lt;li&gt;fetches the VCs from storage&lt;/li&gt;&lt;li&gt;gets the private key from the vault&amp;nbsp;&lt;/li&gt;&lt;li&gt;triggers the generation of the VP&lt;/li&gt;&lt;li&gt;responds to the request with the VP&lt;/li&gt;&lt;/ul&gt;" style="rounded=0;whiteSpace=wrap;html=1;fillColor=#d0cee2;strokeColor=#56517e;align=left;verticalAlign=top;fontColor=#000000;" parent="1" vertex="1"><mxGeometry x="530" y="-140" width="589" height="360" as="geometry"/></mxCell><mxCell id="f_QN_MbOgWcu5FuEZ_xT-8" value="CredentialStateMachine" style="rounded=0;whiteSpace=wrap;html=1;fillColor=#d0cee2;strokeColor=#56517e;align=left;verticalAlign=top;fontColor=#000000;" parent="1" vertex="1"><mxGeometry x="1355" y="-140" width="415" height="430" as="geometry"/></mxCell><mxCell id="f_QN_MbOgWcu5FuEZ_xT-7" value="KeyPairStateMachine" style="rounded=0;whiteSpace=wrap;html=1;fillColor=#d0cee2;strokeColor=#56517e;align=left;verticalAlign=top;fontColor=#1A1A1A;" parent="1" vertex="1"><mxGeometry x="1030" y="450" width="507" height="340" as="geometry"/></mxCell><mxCell id="f_QN_MbOgWcu5FuEZ_xT-2" value="&lt;span style=&quot;color: rgb(0, 0, 0); background-color: initial;&quot;&gt;CredentialVerificationService&lt;/span&gt;&lt;br style=&quot;color: rgb(0, 0, 0); background-color: initial; border-color: var(--border-color);&quot;&gt;&lt;div style=&quot;color: rgb(0, 0, 0); background-color: initial; border-color: var(--border-color);&quot;&gt;&lt;ul style=&quot;border-color: var(--border-color);&quot;&gt;&lt;li style=&quot;border-color: var(--border-color);&quot;&gt;takes a DID&amp;nbsp;&lt;/li&gt;&lt;li style=&quot;border-color: var(--border-color);&quot;&gt;resolves DID Document&lt;/li&gt;&lt;li style=&quot;border-color: var(--border-color);&quot;&gt;extracts relevant information&lt;/li&gt;&lt;li style=&quot;border-color: var(--border-color);&quot;&gt;requests the VP from the counter-party&lt;/li&gt;&lt;/ul&gt;&lt;/div&gt;" style="rounded=0;whiteSpace=wrap;html=1;fillColor=#d0cee2;strokeColor=#56517e;align=left;verticalAlign=top;fontColor=#1A1A1A;" parent="1" vertex="1"><mxGeometry x="10" y="-115" width="470" height="590" as="geometry"/></mxCell><mxCell id="x8H_AzcutYia_HZwhF_x-3" value="DID Resolver (lib)&lt;br style=&quot;border-color: var(--border-color);&quot;&gt;&lt;br style=&quot;border-color: var(--border-color);&quot;&gt;&lt;div style=&quot;border-color: var(--border-color); text-align: left;&quot;&gt;&lt;ul style=&quot;border-color: var(--border-color);&quot;&gt;&lt;li style=&quot;border-color: var(--border-color);&quot;&gt;takes a DID&lt;/li&gt;&lt;li style=&quot;border-color: var(--border-color);&quot;&gt;resolves the DID Document&lt;/li&gt;&lt;/ul&gt;&lt;/div&gt;" style="rounded=0;whiteSpace=wrap;html=1;" parent="1" vertex="1"><mxGeometry x="54" y="30" width="360" height="150" as="geometry"/></mxCell><mxCell id="x8H_AzcutYia_HZwhF_x-15" value="VerifiableCredential" style="rounded=0;whiteSpace=wrap;html=1;" parent="1" vertex="1"><mxGeometry x="1590" y="350" width="120" height="60" as="geometry"/></mxCell><mxCell id="x8H_AzcutYia_HZwhF_x-16" value="VerifiablePresentation" style="rounded=0;whiteSpace=wrap;html=1;" parent="1" vertex="1"><mxGeometry x="1660" y="460" width="120" height="60" as="geometry"/></mxCell><mxCell id="x8H_AzcutYia_HZwhF_x-17" value="VerifiableCredentialManager&lt;br style=&quot;font-size: 11px;&quot;&gt;&lt;ul style=&quot;font-size: 11px;&quot;&gt;&lt;li style=&quot;text-align: left; font-size: 11px;&quot;&gt;CRUDs VerifiableCredentials (sparse record vs full)&lt;/li&gt;&lt;li style=&quot;text-align: left; font-size: 11px;&quot;&gt;VCs are stored in the database (maybe a vault)&lt;/li&gt;&lt;li style=&quot;text-align: left; font-size: 11px;&quot;&gt;periodically checks for expiry (ACME), triggers re-issuance, could be skipped on the issuer.&amp;nbsp;&lt;/li&gt;&lt;li style=&quot;text-align: left; font-size: 11px;&quot;&gt;the revocation list is a VC, so issuers need to re-generate the RL when a new revocation comes in.&amp;nbsp;&lt;/li&gt;&lt;li style=&quot;text-align: left; font-size: 11px;&quot;&gt;Re-issuance has a different code flow behind it: issuers would only send the credential offer&lt;/li&gt;&lt;li style=&quot;text-align: left; font-size: 11px;&quot;&gt;Status list VCs (revocation) aren't actually VCs internally, they are only represented as VCs at the API.&lt;/li&gt;&lt;/ul&gt;&lt;div style=&quot;text-align: left; font-size: 11px;&quot;&gt;Implementations will likely differ for issuers and wallets. Issuers may not even track expiry. Issuers never store the actual credential, it only stores a reference to it.&lt;/div&gt;" style="rounded=0;whiteSpace=wrap;html=1;fontSize=11;" parent="1" vertex="1"><mxGeometry x="1380" y="-115" width="380" height="255" as="geometry"/></mxCell><mxCell id="x8H_AzcutYia_HZwhF_x-19" style="edgeStyle=orthogonalEdgeStyle;rounded=0;orthogonalLoop=1;jettySize=auto;html=1;strokeColor=#4D4D4D;" parent="1" source="x8H_AzcutYia_HZwhF_x-18" target="x8H_AzcutYia_HZwhF_x-17" edge="1"><mxGeometry relative="1" as="geometry"/></mxCell><mxCell id="x8H_AzcutYia_HZwhF_x-18" value="Question: do we have to support storing VPs? How does Gaia-X return credentials? in VC or VP format?" style="shape=note;whiteSpace=wrap;html=1;backgroundOutline=1;darkOpacity=0.05;fillColor=#f8cecc;strokeColor=#b85450;fontColor=#000000;" parent="1" vertex="1"><mxGeometry x="1500" y="190" width="210" height="80" as="geometry"/></mxCell><mxCell id="x8H_AzcutYia_HZwhF_x-23" style="edgeStyle=orthogonalEdgeStyle;rounded=0;orthogonalLoop=1;jettySize=auto;html=1;dashed=1;strokeColor=#4D4D4D;" parent="1" source="x8H_AzcutYia_HZwhF_x-20" target="x8H_AzcutYia_HZwhF_x-22" edge="1"><mxGeometry relative="1" as="geometry"/></mxCell><mxCell id="x8H_AzcutYia_HZwhF_x-25" style="edgeStyle=orthogonalEdgeStyle;rounded=0;orthogonalLoop=1;jettySize=auto;html=1;entryX=0.5;entryY=0;entryDx=0;entryDy=0;exitX=0;exitY=0.5;exitDx=0;exitDy=0;strokeColor=#4D4D4D;" parent="1" source="x8H_AzcutYia_HZwhF_x-20" target="9" edge="1"><mxGeometry relative="1" as="geometry"><mxPoint x="680" y="620" as="targetPoint"/></mxGeometry></mxCell><mxCell id="f_QN_MbOgWcu5FuEZ_xT-12" style="edgeStyle=orthogonalEdgeStyle;rounded=0;orthogonalLoop=1;jettySize=auto;html=1;dashed=1;strokeColor=#4D4D4D;" parent="1" source="x8H_AzcutYia_HZwhF_x-20" target="f_QN_MbOgWcu5FuEZ_xT-11" edge="1"><mxGeometry relative="1" as="geometry"><Array as="points"><mxPoint x="1160" y="670"/><mxPoint x="1415" y="670"/></Array></mxGeometry></mxCell><mxCell id="f_QN_MbOgWcu5FuEZ_xT-14" value="CRUD" style="edgeLabel;html=1;align=center;verticalAlign=middle;resizable=0;points=[];" parent="f_QN_MbOgWcu5FuEZ_xT-12" vertex="1" connectable="0"><mxGeometry x="-0.0545" y="3" relative="1" as="geometry"><mxPoint as="offset"/></mxGeometry></mxCell><mxCell id="x8H_AzcutYia_HZwhF_x-20" value="KeyPairManager&lt;br&gt;&lt;br&gt;&lt;ul&gt;&lt;li style=&quot;text-align: left;&quot;&gt;Generate key pair&lt;/li&gt;&lt;li style=&quot;text-align: left;&quot;&gt;accept externally generated ones&lt;/li&gt;&lt;li style=&quot;text-align: left;&quot;&gt;CRUD key pair&lt;/li&gt;&lt;li style=&quot;text-align: left;&quot;&gt;periodically check for rotation&lt;/li&gt;&lt;/ul&gt;" style="rounded=0;whiteSpace=wrap;html=1;" parent="1" vertex="1"><mxGeometry x="1090" y="490" width="260" height="140" as="geometry"/></mxCell><mxCell id="x8H_AzcutYia_HZwhF_x-22" value="Vault" style="sketch=0;outlineConnect=0;fontColor=#232F3E;gradientColor=none;strokeColor=#232F3E;fillColor=none;dashed=0;verticalLabelPosition=bottom;verticalAlign=top;align=center;html=1;fontSize=12;fontStyle=0;aspect=fixed;shape=mxgraph.aws4.resourceIcon;resIcon=mxgraph.aws4.vault;" parent="1" vertex="1"><mxGeometry x="1190" y="150" width="60" height="60" as="geometry"/></mxCell><mxCell id="x8H_AzcutYia_HZwhF_x-28" value="Azure Blob" style="rounded=0;whiteSpace=wrap;html=1;fillColor=#647687;fontColor=#ffffff;strokeColor=#314354;fontStyle=2" parent="1" vertex="1"><mxGeometry x="430" y="850" width="70" height="100" as="geometry"/></mxCell><mxCell id="x8H_AzcutYia_HZwhF_x-29" value="NGINX" style="rounded=0;whiteSpace=wrap;html=1;fillColor=#647687;fontColor=#ffffff;strokeColor=#314354;fontStyle=2" parent="1" vertex="1"><mxGeometry x="510" y="850" width="60" height="100" as="geometry"/></mxCell><mxCell id="x8H_AzcutYia_HZwhF_x-30" value="S3" style="rounded=0;whiteSpace=wrap;html=1;fillColor=#647687;fontColor=#ffffff;strokeColor=#314354;fontStyle=2" parent="1" vertex="1"><mxGeometry x="650" y="850" width="40" height="100" as="geometry"/></mxCell><mxCell id="x8H_AzcutYia_HZwhF_x-31" value="DidResourcePublisherRegistry" style="rounded=0;whiteSpace=wrap;html=1;" parent="1" vertex="1"><mxGeometry x="430" y="800" width="260" height="40" as="geometry"/></mxCell><mxCell id="x8H_AzcutYia_HZwhF_x-32" value="embedded endpoint" style="rounded=0;whiteSpace=wrap;html=1;fillColor=#647687;fontColor=#ffffff;strokeColor=#314354;fontStyle=2" parent="1" vertex="1"><mxGeometry x="580" y="850" width="60" height="100" as="geometry"/></mxCell><mxCell id="x8H_AzcutYia_HZwhF_x-36" style="edgeStyle=orthogonalEdgeStyle;rounded=0;orthogonalLoop=1;jettySize=auto;html=1;dashed=1;strokeColor=#4D4D4D;" parent="1" source="x8H_AzcutYia_HZwhF_x-35" target="x8H_AzcutYia_HZwhF_x-30" edge="1"><mxGeometry relative="1" as="geometry"/></mxCell><mxCell id="x8H_AzcutYia_HZwhF_x-35" value="contributed via extensions" style="shape=note;whiteSpace=wrap;html=1;backgroundOutline=1;darkOpacity=0.05;fontStyle=2;fillColor=#ffe6cc;strokeColor=#d79b00;fontColor=#000000;" parent="1" vertex="1"><mxGeometry x="760" y="830" width="110" height="140" as="geometry"/></mxCell><mxCell id="f_QN_MbOgWcu5FuEZ_xT-19" value="use" style="edgeStyle=orthogonalEdgeStyle;rounded=0;orthogonalLoop=1;jettySize=auto;html=1;entryX=0;entryY=0.5;entryDx=0;entryDy=0;entryPerimeter=0;dashed=1;strokeColor=#4D4D4D;exitX=1.006;exitY=0.185;exitDx=0;exitDy=0;exitPerimeter=0;" parent="1" source="f_QN_MbOgWcu5FuEZ_xT-16" target="f_QN_MbOgWcu5FuEZ_xT-9" edge="1"><mxGeometry relative="1" as="geometry"/></mxCell><mxCell id="f_QN_MbOgWcu5FuEZ_xT-21" style="edgeStyle=orthogonalEdgeStyle;rounded=0;orthogonalLoop=1;jettySize=auto;html=1;dashed=1;strokeColor=#4D4D4D;exitX=1;exitY=0.398;exitDx=0;exitDy=0;exitPerimeter=0;" parent="1" source="f_QN_MbOgWcu5FuEZ_xT-16" target="x8H_AzcutYia_HZwhF_x-22" edge="1"><mxGeometry relative="1" as="geometry"><Array as="points"><mxPoint x="1220" y="67"/></Array></mxGeometry></mxCell><mxCell id="x8H_AzcutYia_HZwhF_x-37" value="PresentationGenerator&lt;br&gt;&lt;ul&gt;&lt;li style=&quot;&quot;&gt;takes&amp;nbsp;&lt;/li&gt;&lt;ul&gt;&lt;li style=&quot;&quot;&gt;a PresentationDefinition (specifies crypto suite, keys, proof type,...)&lt;/li&gt;&lt;li style=&quot;&quot;&gt;a list of VCs or VC types&lt;/li&gt;&lt;li style=&quot;&quot;&gt;a private key&lt;/li&gt;&lt;/ul&gt;&lt;li style=&quot;&quot;&gt;creates VP out of 1..N VCs using Crypto Suite&lt;/li&gt;&lt;li style=&quot;&quot;&gt;performs crypto magic -&amp;gt; computes proof according to PresentationDefinition, as embedded JWK (linked proof as option)&lt;/li&gt;&lt;/ul&gt;" style="rounded=0;whiteSpace=wrap;html=1;align=left;" parent="1" vertex="1"><mxGeometry x="790" y="-10" width="290" height="190" as="geometry"/></mxCell><mxCell id="f_QN_MbOgWcu5FuEZ_xT-5" value="CryptoSuite&lt;br&gt;&lt;ul&gt;&lt;li style=&quot;text-align: left;&quot;&gt;has multiple implementations&lt;/li&gt;&lt;li style=&quot;text-align: left;&quot;&gt;performs VC/VP verification&lt;/li&gt;&lt;li style=&quot;text-align: left;&quot;&gt;performs VC/VP creation (issuance)&lt;/li&gt;&lt;/ul&gt;" style="rounded=0;whiteSpace=wrap;html=1;" parent="1" vertex="1"><mxGeometry x="600" y="250" width="260" height="140" as="geometry"/></mxCell><mxCell id="f_QN_MbOgWcu5FuEZ_xT-9" value="VerifiableCredentialResourceStore" style="shape=cylinder3;whiteSpace=wrap;html=1;boundedLbl=1;backgroundOutline=1;size=15;fillColor=#d5e8d4;strokeColor=#82b366;fontColor=#1A1A1A;" parent="1" vertex="1"><mxGeometry x="1190" y="-115" width="70" height="90" as="geometry"/></mxCell><mxCell id="f_QN_MbOgWcu5FuEZ_xT-11" value="KeyPairResourceStore" style="shape=cylinder3;whiteSpace=wrap;html=1;boundedLbl=1;backgroundOutline=1;size=15;fillColor=#d5e8d4;strokeColor=#82b366;fontColor=#1A1A1A;" parent="1" vertex="1"><mxGeometry x="1430" y="680" width="70" height="90" as="geometry"/></mxCell><mxCell id="f_QN_MbOgWcu5FuEZ_xT-18" value="use" style="edgeStyle=orthogonalEdgeStyle;rounded=0;orthogonalLoop=1;jettySize=auto;html=1;entryX=0;entryY=0.5;entryDx=0;entryDy=0;dashed=1;strokeColor=#4D4D4D;" parent="1" source="f_QN_MbOgWcu5FuEZ_xT-17" target="f_QN_MbOgWcu5FuEZ_xT-5" edge="1"><mxGeometry relative="1" as="geometry"/></mxCell><mxCell id="f_QN_MbOgWcu5FuEZ_xT-17" value="&lt;div style=&quot;border-color: var(--border-color);&quot;&gt;&lt;span style=&quot;background-color: initial;&quot;&gt;CredentialVerifier&lt;/span&gt;&lt;br style=&quot;background-color: initial; border-color: var(--border-color); text-align: center;&quot;&gt;&lt;div style=&quot;background-color: initial; border-color: var(--border-color);&quot;&gt;&lt;ul style=&quot;border-color: var(--border-color);&quot;&gt;&lt;li style=&quot;text-align: left; border-color: var(--border-color);&quot;&gt;&lt;span style=&quot;border-color: var(--border-color); background-color: initial;&quot;&gt;takes a token and a Credential Service URL&lt;/span&gt;&lt;/li&gt;&lt;li style=&quot;text-align: left; border-color: var(--border-color);&quot;&gt;&lt;span style=&quot;border-color: var(--border-color); background-color: initial;&quot;&gt;resolves VPs&lt;/span&gt;&lt;/li&gt;&lt;li style=&quot;text-align: left; border-color: var(--border-color);&quot;&gt;&lt;span style=&quot;border-color: var(--border-color); background-color: initial;&quot;&gt;VP format: JWT or JSON-LD?&lt;/span&gt;&lt;/li&gt;&lt;li style=&quot;text-align: left; border-color: var(--border-color);&quot;&gt;&lt;span style=&quot;border-color: var(--border-color); background-color: initial;&quot;&gt;Crypto Suites: JWS2020, ED25519, ... -&amp;gt;&lt;/span&gt;Registry with common SPI&lt;/li&gt;&lt;li style=&quot;text-align: left; border-color: var(--border-color);&quot;&gt;VP: JWT format and JSON-LD should both be accepted&lt;/li&gt;&lt;/ul&gt;&lt;/div&gt;&lt;/div&gt;" style="rounded=0;whiteSpace=wrap;html=1;" parent="1" vertex="1"><mxGeometry x="54" y="260" width="360" height="180" as="geometry"/></mxCell><mxCell id="f_QN_MbOgWcu5FuEZ_xT-22" value="DidDocument" style="rounded=0;whiteSpace=wrap;html=1;" parent="1" vertex="1"><mxGeometry x="1430" y="330" width="120" height="60" as="geometry"/></mxCell><mxCell id="3" value="DIF Presentation Endpoint&lt;br&gt;- receives PresentationDefinition" style="rounded=0;whiteSpace=wrap;html=1;" parent="1" vertex="1"><mxGeometry x="860" y="-90" width="220" height="70" as="geometry"/></mxCell><mxCell id="4" value="use" style="edgeStyle=orthogonalEdgeStyle;rounded=0;orthogonalLoop=1;jettySize=auto;html=1;entryX=0.5;entryY=0;entryDx=0;entryDy=0;dashed=1;strokeColor=#4D4D4D;" parent="1" source="x8H_AzcutYia_HZwhF_x-37" target="f_QN_MbOgWcu5FuEZ_xT-5" edge="1"><mxGeometry relative="1" as="geometry"><mxPoint x="424" y="360.0344827586209" as="sourcePoint"/><mxPoint x="610" y="330" as="targetPoint"/><Array as="points"><mxPoint x="935" y="200"/><mxPoint x="730" y="200"/></Array></mxGeometry></mxCell><mxCell id="5" value="use" style="edgeStyle=orthogonalEdgeStyle;rounded=0;orthogonalLoop=1;jettySize=auto;html=1;dashed=1;strokeColor=#4D4D4D;" parent="1" source="x8H_AzcutYia_HZwhF_x-17" target="f_QN_MbOgWcu5FuEZ_xT-9" edge="1"><mxGeometry relative="1" as="geometry"><mxPoint x="1132.534" y="-63.399999999999864" as="sourcePoint"/><mxPoint x="1200" y="-60" as="targetPoint"/><Array as="points"><mxPoint x="1310" y="-13"/><mxPoint x="1310" y="-70"/></Array></mxGeometry></mxCell><mxCell id="6" value="DidResourceStore" style="shape=cylinder3;whiteSpace=wrap;html=1;boundedLbl=1;backgroundOutline=1;size=15;fillColor=#d5e8d4;strokeColor=#82b366;fontColor=#1A1A1A;" parent="1" vertex="1"><mxGeometry x="710" y="610" width="70" height="90" as="geometry"/></mxCell><mxCell id="10" value="Text" style="text;html=1;resizable=0;autosize=1;align=center;verticalAlign=middle;points=[];fillColor=none;strokeColor=none;rounded=0;" parent="1" vertex="1"><mxGeometry x="1085" y="695" width="50" height="30" as="geometry"/></mxCell></root></mxGraphModel></diagram></mxfile>